<svg width="40" height="40" viewBox="0 0 40 40" fill="none" xmlns="http://www.w3.org/2000/svg" xmlns:xlink="http://www.w3.org/1999/xlink">
<path d="M8.333,18.333C8.333,12.818 12.818,8.333 18.333,8.333C23.848,8.333 28.333,12.818 28.333,18.333C28.333,23.848 23.848,28.333 18.333,28.333C12.818,28.333 8.333,23.848 8.333,18.333M34.512,32.155L28.853,26.495C30.608,24.238 31.667,21.41 31.667,18.333C31.667,10.982 25.685,5 18.333,5C10.982,5 5,10.982 5,18.333C5,25.685 10.982,31.667 18.333,31.667C21.41,31.667 24.238,30.608 26.495,28.853L32.155,34.512C32.48,34.837 32.907,35 33.333,35C33.76,35 34.187,34.837 34.512,34.512C35.163,33.86 35.163,32.807 34.512,32.155Z" clip-rule="evenodd" fill-rule="evenodd" fill="#FFFFFF"/>
<rect  x="0" y="0" width="40" height="40" fill="#FFFFFF"/>
</svg>
