<svg width="178" height="152" viewBox="0 0 178 152" fill="none" xmlns="http://www.w3.org/2000/svg" xmlns:xlink="http://www.w3.org/1999/xlink">
<path d="M151.083,0.238L26.917,0.238C12.247,0.238 0.31,10.974 0.31,24.167L0.31,46.747C0.31,55.146 3.698,62.78 9.179,68.65L9.179,143.81C9.179,145.925 10.113,147.954 11.776,149.45C13.44,150.945 15.696,151.786 18.048,151.786L89,151.786C91.352,151.786 93.608,150.945 95.271,149.45C96.935,147.954 97.869,145.925 97.869,143.81L97.869,103.929L133.345,103.929L133.345,143.81C133.345,145.925 134.28,147.954 135.943,149.45C137.606,150.945 139.862,151.786 142.214,151.786L159.952,151.786C162.305,151.786 164.561,150.945 166.224,149.45C167.887,147.954 168.821,145.925 168.821,143.81L168.821,68.642C174.303,62.78 177.691,55.146 177.691,46.739L177.691,24.167C177.691,10.974 165.753,0.238 151.083,0.238ZM159.952,24.167L159.952,46.747C159.952,55.84 152.423,63.593 143.181,64.032L142.214,64.048C132.432,64.048 124.476,56.893 124.476,48.095L124.476,16.191L151.083,16.191C155.979,16.191 159.952,19.772 159.952,24.167ZM71.262,48.095L71.262,16.191L106.738,16.191L106.738,48.095C106.738,56.893 98.783,64.048 89,64.048C79.218,64.048 71.262,56.893 71.262,48.095ZM18.048,24.167C18.048,19.772 22.021,16.191 26.917,16.191L53.524,16.191L53.524,48.095C53.524,56.893 45.568,64.048 35.786,64.048L34.819,64.024C25.578,63.593 18.048,55.84 18.048,46.747L18.048,24.167ZM71.262,111.905L35.786,111.905L35.786,87.976L71.262,87.976L71.262,111.905Z" fill="url(#pf_0_7_1760)"/>
<defs>
<linearGradient id="pf_0_7_1760" x1="89" y1="0.238" x2="89" y2="151.786" gradientUnits="userSpaceOnUse">
<stop stop-color="#EA9769"/>
<stop offset="1" stop-color="#EA6969"/>
</linearGradient>
</defs>
</svg>
