<svg width="30" height="34" viewBox="0 0 30 34" fill="none" xmlns="http://www.w3.org/2000/svg" xmlns:xlink="http://www.w3.org/1999/xlink">
<path d="M25.465,10.531L25.631,10.534C26.246,10.584 26.717,11.095 26.75,11.71L26.734,12.053L26.21,18.472L25.66,24.735C25.544,25.986 25.44,27.041 25.35,27.871C25.037,30.764 23.159,32.554 20.328,32.607C15.916,32.688 11.675,32.687 7.556,32.598C4.807,32.541 2.956,30.732 2.649,27.883L2.437,25.783L2.067,21.712L1.687,17.243L1.253,11.88C1.199,11.192 1.699,10.589 2.37,10.534C2.985,10.483 3.531,10.91 3.659,11.511L3.709,12.003L4.116,17.031L4.561,22.243C4.761,24.499 4.934,26.325 5.072,27.608C5.247,29.232 6.102,30.067 7.607,30.099C11.693,30.187 15.902,30.188 20.283,30.107C21.88,30.077 22.748,29.25 22.927,27.595L23.138,25.507C23.2,24.864 23.266,24.154 23.336,23.382L23.781,18.256L24.318,11.679C24.367,11.048 24.865,10.565 25.465,10.531ZM0.219,7.649C-0.454,7.649 -1,7.089 -1,6.399C-1,5.766 -0.541,5.243 0.054,5.16L0.219,5.148L5.53,5.148C6.161,5.148 6.713,4.732 6.911,4.132L6.959,3.947L7.372,1.842C7.735,0.448 8.915,-0.544 10.298,-0.656L10.56,-0.667L17.44,-0.667C18.846,-0.667 20.087,0.244 20.565,1.651L20.646,1.92L21.041,3.946C21.164,4.581 21.671,5.055 22.283,5.136L22.47,5.148L27.781,5.148C28.454,5.148 29,5.708 29,6.399C29,7.031 28.541,7.554 27.946,7.637L27.781,7.649L0.219,7.649ZM17.44,1.833L10.56,1.833C10.218,1.833 9.914,2.039 9.788,2.297L9.745,2.41L9.35,4.437C9.301,4.685 9.231,4.923 9.142,5.15L18.858,5.15C18.802,5.009 18.754,4.863 18.714,4.713L18.65,4.437L18.273,2.488C18.185,2.15 17.912,1.902 17.584,1.846L17.44,1.833Z" fill="#FF7CA3"/>
</svg>
